<mxfile host="65bd71144e">
    <diagram id="-Xdi6BjrrUW5Lwq-xjzk" name="Page-1">
        <mxGraphModel dx="1093" dy="615" grid="1" gridSize="10" guides="1" tooltips="1" connect="1" arrows="1" fold="1" page="1" pageScale="1" pageWidth="1600" pageHeight="900" math="0" shadow="0">
            <root>
                <mxCell id="0"/>
                <mxCell id="1" parent="0"/>
                <mxCell id="270" value="" style="html=1;dashed=1;rounded=1;absoluteArcSize=1;arcSize=20;verticalAlign=middle;align=center;fillColor=none;" parent="1" vertex="1">
                    <mxGeometry x="360" y="780" width="420" height="700" as="geometry"/>
                </mxCell>
                <mxCell id="271" value="" style="group;resizeWidth=0;resizeHeight=0;" parent="270" vertex="1">
                    <mxGeometry width="80" height="20" relative="1" as="geometry">
                        <mxPoint x="30" y="-10" as="offset"/>
                    </mxGeometry>
                </mxCell>
                <mxCell id="272" value="" style="resizeWidth=0;resizeHeight=0;points=[[0,0],[0.5,0],[1,0]];" parent="271" vertex="1">
                    <mxGeometry width="20" height="20" relative="1" as="geometry">
                        <mxPoint as="offset"/>
                    </mxGeometry>
                </mxCell>
                <mxCell id="273" value="" style="resizeWidth=0;resizeHeight=0;points=[[0,0],[0.5,0],[1,0]];" parent="271" vertex="1">
                    <mxGeometry width="20" height="20" relative="1" as="geometry">
                        <mxPoint x="20" as="offset"/>
                    </mxGeometry>
                </mxCell>
                <mxCell id="274" value="" style="resizeWidth=0;resizeHeight=0;points=[[0,0],[0.5,0],[1,0]];" parent="271" vertex="1">
                    <mxGeometry width="20" height="20" relative="1" as="geometry">
                        <mxPoint x="40" as="offset"/>
                    </mxGeometry>
                </mxCell>
                <mxCell id="275" value="" style="resizeWidth=0;resizeHeight=0;points=[[0,0],[0.5,0],[1,0]];" parent="271" vertex="1">
                    <mxGeometry width="20" height="20" relative="1" as="geometry">
                        <mxPoint x="60" as="offset"/>
                    </mxGeometry>
                </mxCell>
                <mxCell id="276" value="" style="group;resizeWidth=0;resizeHeight=0;" parent="270" vertex="1">
                    <mxGeometry y="1" width="80" height="20" relative="1" as="geometry">
                        <mxPoint x="30" y="-10" as="offset"/>
                    </mxGeometry>
                </mxCell>
                <mxCell id="277" value="" style="resizeWidth=0;resizeHeight=0;points=[[0,1],[0.5,1],[1,1]];" parent="276" vertex="1">
                    <mxGeometry width="20" height="20" relative="1" as="geometry">
                        <mxPoint as="offset"/>
                    </mxGeometry>
                </mxCell>
                <mxCell id="278" value="" style="resizeWidth=0;resizeHeight=0;points=[[0,1],[0.5,1],[1,1]];" parent="276" vertex="1">
                    <mxGeometry width="20" height="20" relative="1" as="geometry">
                        <mxPoint x="20" as="offset"/>
                    </mxGeometry>
                </mxCell>
                <mxCell id="279" value="" style="resizeWidth=0;resizeHeight=0;points=[[0,1],[0.5,1],[1,1]];" parent="276" vertex="1">
                    <mxGeometry width="20" height="20" relative="1" as="geometry">
                        <mxPoint x="40" as="offset"/>
                    </mxGeometry>
                </mxCell>
                <mxCell id="280" value="" style="resizeWidth=0;resizeHeight=0;points=[[0,1],[0.5,1],[1,1]];" parent="276" vertex="1">
                    <mxGeometry width="20" height="20" relative="1" as="geometry">
                        <mxPoint x="60" as="offset"/>
                    </mxGeometry>
                </mxCell>
                <mxCell id="281" value="Every table" style="text;html=1;align=left;verticalAlign=middle;resizable=0;points=[];autosize=1;strokeColor=none;fillColor=none;" parent="270" vertex="1">
                    <mxGeometry x="120.0014" width="80" height="30" as="geometry"/>
                </mxCell>
                <mxCell id="6" style="edgeStyle=none;html=1;exitX=0.5;exitY=0.5;exitDx=0;exitDy=15;exitPerimeter=0;entryX=0.5;entryY=0;entryDx=0;entryDy=0;" parent="1" source="4" target="5" edge="1">
                    <mxGeometry relative="1" as="geometry"/>
                </mxCell>
                <mxCell id="4" value="Start" style="html=1;dashed=0;whitespace=wrap;shape=mxgraph.dfd.start;fillColor=#1ba1e2;strokeColor=#006EAF;fontColor=#ffffff;" parent="1" vertex="1">
                    <mxGeometry x="390" y="70" width="80" height="30" as="geometry"/>
                </mxCell>
                <mxCell id="10" style="edgeStyle=none;html=1;exitX=0.5;exitY=1;exitDx=0;exitDy=0;" parent="1" source="5" target="9" edge="1">
                    <mxGeometry relative="1" as="geometry"/>
                </mxCell>
                <mxCell id="5" value="Read SQL" style="shape=rect;html=1;rounded=1;whiteSpace=wrap;align=center;fillColor=#008a00;fontColor=#ffffff;strokeColor=#005700;" parent="1" vertex="1">
                    <mxGeometry x="370" y="150" width="120" height="50" as="geometry"/>
                </mxCell>
                <mxCell id="22" style="edgeStyle=none;html=1;exitX=0.5;exitY=1;exitDx=0;exitDy=0;entryX=0.5;entryY=0;entryDx=0;entryDy=0;endArrow=classic;endFill=1;" parent="1" source="9" target="20" edge="1">
                    <mxGeometry relative="1" as="geometry"/>
                </mxCell>
                <mxCell id="9" value="Select all users" style="shape=rect;html=1;rounded=1;whiteSpace=wrap;align=center;fillColor=#008a00;fontColor=#ffffff;strokeColor=#005700;" parent="1" vertex="1">
                    <mxGeometry x="370" y="240" width="120" height="50" as="geometry"/>
                </mxCell>
                <mxCell id="50" style="edgeStyle=none;html=1;exitX=0.5;exitY=0.5;exitDx=0;exitDy=0;exitPerimeter=0;entryX=0;entryY=0.5;entryDx=0;entryDy=0;endArrow=classic;endFill=1;" parent="1" source="11" target="20" edge="1">
                    <mxGeometry relative="1" as="geometry"/>
                </mxCell>
                <mxCell id="11" value="User" style="shape=umlActor;verticalLabelPosition=bottom;verticalAlign=top;html=1;" parent="1" vertex="1">
                    <mxGeometry x="240" y="325" width="30" height="60" as="geometry"/>
                </mxCell>
                <mxCell id="19" value="" style="edgeStyle=none;html=1;endArrow=classic;endFill=1;entryX=0;entryY=0.5;entryDx=0;entryDy=0;" parent="1" source="18" target="5" edge="1">
                    <mxGeometry relative="1" as="geometry">
                        <mxPoint x="360" y="210" as="targetPoint"/>
                    </mxGeometry>
                </mxCell>
                <mxCell id="18" value="create_user.sql" style="shape=note;whiteSpace=wrap;html=1;backgroundOutline=1;darkOpacity=0.05;align=center;fillColor=#f0a30a;fontColor=#000000;strokeColor=#BD7000;" parent="1" vertex="1">
                    <mxGeometry x="210" y="135" width="110" height="80" as="geometry"/>
                </mxCell>
                <mxCell id="24" style="edgeStyle=none;html=1;exitX=0.5;exitY=1;exitDx=0;exitDy=0;entryX=0.5;entryY=0;entryDx=0;entryDy=0;endArrow=classic;endFill=1;" parent="1" source="20" target="23" edge="1">
                    <mxGeometry relative="1" as="geometry"/>
                </mxCell>
                <mxCell id="20" value="Ask which user to edit" style="shape=rect;html=1;rounded=1;whiteSpace=wrap;align=center;fillColor=#008a00;fontColor=#ffffff;strokeColor=#005700;" parent="1" vertex="1">
                    <mxGeometry x="370" y="330" width="120" height="50" as="geometry"/>
                </mxCell>
                <mxCell id="25" style="edgeStyle=none;html=1;exitX=1;exitY=0.5;exitDx=0;exitDy=0;entryX=1;entryY=0.5;entryDx=0;entryDy=0;endArrow=classic;endFill=1;" parent="1" source="23" target="20" edge="1">
                    <mxGeometry relative="1" as="geometry">
                        <Array as="points">
                            <mxPoint x="520" y="460"/>
                            <mxPoint x="520" y="355"/>
                        </Array>
                    </mxGeometry>
                </mxCell>
                <mxCell id="34" style="edgeStyle=none;html=1;exitX=0.5;exitY=1;exitDx=0;exitDy=0;entryX=0.5;entryY=0;entryDx=0;entryDy=0;endArrow=classic;endFill=1;" parent="1" source="23" target="33" edge="1">
                    <mxGeometry relative="1" as="geometry"/>
                </mxCell>
                <mxCell id="23" value="Answer is valid?" style="rhombus;whiteSpace=wrap;html=1;fillColor=#76608a;fontColor=#ffffff;strokeColor=#432D57;" parent="1" vertex="1">
                    <mxGeometry x="390" y="420" width="80" height="80" as="geometry"/>
                </mxCell>
                <mxCell id="26" value="No" style="text;html=1;align=center;verticalAlign=middle;resizable=0;points=[];autosize=1;strokeColor=none;fillColor=none;" parent="1" vertex="1">
                    <mxGeometry x="470" y="435" width="40" height="30" as="geometry"/>
                </mxCell>
                <mxCell id="42" style="edgeStyle=none;html=1;exitX=0.5;exitY=1;exitDx=0;exitDy=0;entryX=0.5;entryY=0;entryDx=0;entryDy=0;endArrow=classic;endFill=1;" parent="1" source="33" target="41" edge="1">
                    <mxGeometry relative="1" as="geometry"/>
                </mxCell>
                <mxCell id="33" value="Enter Student ID for selected user before proceeding" style="shape=rect;html=1;rounded=1;whiteSpace=wrap;align=center;fillColor=#008a00;fontColor=#ffffff;strokeColor=#005700;" parent="1" vertex="1">
                    <mxGeometry x="370" y="540" width="120" height="50" as="geometry"/>
                </mxCell>
                <mxCell id="40" style="edgeStyle=none;html=1;exitX=1;exitY=0.5;exitDx=0;exitDy=0;entryX=0;entryY=0.5;entryDx=0;entryDy=0;endArrow=classic;endFill=1;" parent="1" source="39" target="9" edge="1">
                    <mxGeometry relative="1" as="geometry"/>
                </mxCell>
                <mxCell id="39" value="hackathon.db" style="shape=datastore;whiteSpace=wrap;html=1;fillColor=#f0a30a;fontColor=#000000;strokeColor=#BD7000;" parent="1" vertex="1">
                    <mxGeometry x="217.5" y="235" width="95" height="60" as="geometry"/>
                </mxCell>
                <mxCell id="60" style="edgeStyle=none;html=1;exitX=1;exitY=0.5;exitDx=0;exitDy=0;entryX=0;entryY=0.5;entryDx=0;entryDy=0;fontSize=16;endArrow=classic;endFill=1;" parent="1" source="41" target="59" edge="1">
                    <mxGeometry relative="1" as="geometry"/>
                </mxCell>
                <mxCell id="284" style="edgeStyle=none;html=1;exitX=0.5;exitY=1;exitDx=0;exitDy=0;entryX=1;entryY=0;entryDx=0;entryDy=0;strokeColor=#000000;" parent="1" source="41" target="273" edge="1">
                    <mxGeometry relative="1" as="geometry"/>
                </mxCell>
                <mxCell id="41" value="Student ID is valid?" style="rhombus;whiteSpace=wrap;html=1;fillColor=#76608a;fontColor=#ffffff;strokeColor=#432D57;" parent="1" vertex="1">
                    <mxGeometry x="385" y="630" width="90" height="100" as="geometry"/>
                </mxCell>
                <mxCell id="47" value="End" style="html=1;dashed=0;whitespace=wrap;shape=mxgraph.dfd.start;fillColor=#1ba1e2;strokeColor=#006EAF;fontColor=#ffffff;" parent="1" vertex="1">
                    <mxGeometry x="390" y="1690" width="80" height="30" as="geometry"/>
                </mxCell>
                <mxCell id="49" value="hackathon.db" style="shape=datastore;whiteSpace=wrap;html=1;fillColor=#f0a30a;fontColor=#000000;strokeColor=#BD7000;" parent="1" vertex="1">
                    <mxGeometry x="530" y="1520" width="95" height="60" as="geometry"/>
                </mxCell>
                <mxCell id="52" style="edgeStyle=none;html=1;exitX=0.5;exitY=0.5;exitDx=0;exitDy=0;exitPerimeter=0;entryX=0;entryY=0.5;entryDx=0;entryDy=0;endArrow=classic;endFill=1;" parent="1" source="51" target="33" edge="1">
                    <mxGeometry relative="1" as="geometry"/>
                </mxCell>
                <mxCell id="51" value="User" style="shape=umlActor;verticalLabelPosition=bottom;verticalAlign=top;html=1;" parent="1" vertex="1">
                    <mxGeometry x="240" y="535" width="30" height="60" as="geometry"/>
                </mxCell>
                <mxCell id="61" style="edgeStyle=none;html=1;exitX=0.5;exitY=0;exitDx=0;exitDy=0;entryX=1;entryY=0.5;entryDx=0;entryDy=0;fontSize=16;endArrow=classic;endFill=1;" parent="1" source="59" target="33" edge="1">
                    <mxGeometry relative="1" as="geometry">
                        <Array as="points">
                            <mxPoint x="825" y="565"/>
                        </Array>
                    </mxGeometry>
                </mxCell>
                <mxCell id="285" style="edgeStyle=none;html=1;exitX=0.5;exitY=1;exitDx=0;exitDy=0;entryX=1;entryY=0.5;entryDx=0;entryDy=0;entryPerimeter=0;strokeColor=#000000;" parent="1" source="59" target="47" edge="1">
                    <mxGeometry relative="1" as="geometry">
                        <Array as="points">
                            <mxPoint x="825" y="1705"/>
                        </Array>
                    </mxGeometry>
                </mxCell>
                <mxCell id="59" value="Repeated question 3 times?" style="rhombus;whiteSpace=wrap;html=1;fillColor=#76608a;fontColor=#ffffff;strokeColor=#432D57;" parent="1" vertex="1">
                    <mxGeometry x="780" y="630" width="90" height="100" as="geometry"/>
                </mxCell>
                <mxCell id="62" value="No" style="text;html=1;align=center;verticalAlign=middle;resizable=0;points=[];autosize=1;strokeColor=none;fillColor=none;" parent="1" vertex="1">
                    <mxGeometry x="471" y="656" width="40" height="30" as="geometry"/>
                </mxCell>
                <mxCell id="63" value="Yes" style="text;html=1;align=center;verticalAlign=middle;resizable=0;points=[];autosize=1;strokeColor=none;fillColor=none;" parent="1" vertex="1">
                    <mxGeometry x="430" y="500" width="40" height="30" as="geometry"/>
                </mxCell>
                <mxCell id="65" value="Yes" style="text;html=1;align=center;verticalAlign=middle;resizable=0;points=[];autosize=1;strokeColor=none;fillColor=none;" parent="1" vertex="1">
                    <mxGeometry x="425" y="723" width="40" height="30" as="geometry"/>
                </mxCell>
                <mxCell id="173" style="edgeStyle=none;html=1;exitX=0;exitY=1;exitDx=0;exitDy=0;fontSize=16;endArrow=classic;endFill=1;" parent="1" source="279" target="172" edge="1">
                    <mxGeometry relative="1" as="geometry">
                        <mxPoint x="440" y="1513" as="sourcePoint"/>
                    </mxGeometry>
                </mxCell>
                <mxCell id="174" style="edgeStyle=none;html=1;exitX=1;exitY=0.5;exitDx=0;exitDy=0;fontSize=16;endArrow=classic;endFill=1;" parent="1" source="172" target="49" edge="1">
                    <mxGeometry relative="1" as="geometry"/>
                </mxCell>
                <mxCell id="176" style="edgeStyle=none;html=1;exitX=0.5;exitY=1;exitDx=0;exitDy=0;entryX=0.5;entryY=0;entryDx=0;entryDy=0;fontSize=16;endArrow=classic;endFill=1;" parent="1" source="172" target="175" edge="1">
                    <mxGeometry relative="1" as="geometry"/>
                </mxCell>
                <mxCell id="172" value="Apply changes to&lt;br&gt;database" style="shape=rect;html=1;rounded=1;whiteSpace=wrap;align=center;fillColor=#008a00;fontColor=#ffffff;strokeColor=#005700;" parent="1" vertex="1">
                    <mxGeometry x="370" y="1525" width="120" height="50" as="geometry"/>
                </mxCell>
                <mxCell id="179" value="" style="edgeStyle=none;html=1;fontSize=16;endArrow=classic;endFill=1;" parent="1" source="175" target="47" edge="1">
                    <mxGeometry relative="1" as="geometry"/>
                </mxCell>
                <mxCell id="175" value="Print information" style="shape=rect;html=1;rounded=1;whiteSpace=wrap;align=center;fillColor=#008a00;fontColor=#ffffff;strokeColor=#005700;" parent="1" vertex="1">
                    <mxGeometry x="370" y="1605" width="120" height="50" as="geometry"/>
                </mxCell>
                <mxCell id="181" value="" style="html=1;dashed=1;rounded=1;absoluteArcSize=1;arcSize=20;verticalAlign=middle;align=center;fillColor=none;" parent="1" vertex="1">
                    <mxGeometry x="430" y="840" width="320" height="590" as="geometry"/>
                </mxCell>
                <mxCell id="182" value="" style="group;resizeWidth=0;resizeHeight=0;" parent="181" vertex="1">
                    <mxGeometry width="80" height="20" relative="1" as="geometry">
                        <mxPoint x="30" y="-10" as="offset"/>
                    </mxGeometry>
                </mxCell>
                <mxCell id="183" value="" style="resizeWidth=0;resizeHeight=0;points=[[0,0],[0.5,0],[1,0]];" parent="182" vertex="1">
                    <mxGeometry width="20" height="20" relative="1" as="geometry">
                        <mxPoint as="offset"/>
                    </mxGeometry>
                </mxCell>
                <mxCell id="184" value="" style="resizeWidth=0;resizeHeight=0;points=[[0,0],[0.5,0],[1,0]];" parent="182" vertex="1">
                    <mxGeometry width="20" height="20" relative="1" as="geometry">
                        <mxPoint x="20" as="offset"/>
                    </mxGeometry>
                </mxCell>
                <mxCell id="185" value="" style="resizeWidth=0;resizeHeight=0;points=[[0,0],[0.5,0],[1,0]];" parent="182" vertex="1">
                    <mxGeometry width="20" height="20" relative="1" as="geometry">
                        <mxPoint x="40" as="offset"/>
                    </mxGeometry>
                </mxCell>
                <mxCell id="186" value="" style="resizeWidth=0;resizeHeight=0;points=[[0,0],[0.5,0],[1,0]];" parent="182" vertex="1">
                    <mxGeometry width="20" height="20" relative="1" as="geometry">
                        <mxPoint x="60" as="offset"/>
                    </mxGeometry>
                </mxCell>
                <mxCell id="187" value="" style="group;resizeWidth=0;resizeHeight=0;" parent="181" vertex="1">
                    <mxGeometry y="1" width="80" height="20" relative="1" as="geometry">
                        <mxPoint x="30" y="-10" as="offset"/>
                    </mxGeometry>
                </mxCell>
                <mxCell id="188" value="" style="resizeWidth=0;resizeHeight=0;points=[[0,1],[0.5,1],[1,1]];" parent="187" vertex="1">
                    <mxGeometry width="20" height="20" relative="1" as="geometry">
                        <mxPoint as="offset"/>
                    </mxGeometry>
                </mxCell>
                <mxCell id="189" value="" style="resizeWidth=0;resizeHeight=0;points=[[0,1],[0.5,1],[1,1]];" parent="187" vertex="1">
                    <mxGeometry width="20" height="20" relative="1" as="geometry">
                        <mxPoint x="20" as="offset"/>
                    </mxGeometry>
                </mxCell>
                <mxCell id="190" value="" style="resizeWidth=0;resizeHeight=0;points=[[0,1],[0.5,1],[1,1]];" parent="187" vertex="1">
                    <mxGeometry width="20" height="20" relative="1" as="geometry">
                        <mxPoint x="40" as="offset"/>
                    </mxGeometry>
                </mxCell>
                <mxCell id="191" value="" style="resizeWidth=0;resizeHeight=0;points=[[0,1],[0.5,1],[1,1]];" parent="187" vertex="1">
                    <mxGeometry width="20" height="20" relative="1" as="geometry">
                        <mxPoint x="60" as="offset"/>
                    </mxGeometry>
                </mxCell>
                <mxCell id="283" style="edgeStyle=none;html=1;exitX=0;exitY=1;exitDx=0;exitDy=0;entryX=0.75;entryY=0;entryDx=0;entryDy=0;strokeColor=#000000;" parent="187" source="189" target="276" edge="1">
                    <mxGeometry relative="1" as="geometry"/>
                </mxCell>
                <mxCell id="269" value="Every column" style="text;html=1;align=left;verticalAlign=middle;resizable=0;points=[];autosize=1;strokeColor=none;fillColor=none;" parent="181" vertex="1">
                    <mxGeometry x="120" width="100" height="30" as="geometry"/>
                </mxCell>
                <mxCell id="237" style="edgeStyle=none;html=1;exitX=0.5;exitY=1;exitDx=0;exitDy=0;entryX=0.5;entryY=0;entryDx=0;entryDy=0;fontSize=16;endArrow=classic;endFill=1;" parent="1" source="238" target="241" edge="1">
                    <mxGeometry relative="1" as="geometry"/>
                </mxCell>
                <mxCell id="238" value="Request for new value" style="shape=rect;html=1;rounded=1;whiteSpace=wrap;align=center;fillColor=#008a00;fontColor=#ffffff;strokeColor=#005700;" parent="1" vertex="1">
                    <mxGeometry x="460" y="881" width="120" height="50" as="geometry"/>
                </mxCell>
                <mxCell id="239" style="edgeStyle=none;html=1;exitX=1;exitY=0.5;exitDx=0;exitDy=0;entryX=0;entryY=0.5;entryDx=0;entryDy=0;fontSize=16;endArrow=classic;endFill=1;" parent="1" source="241" target="244" edge="1">
                    <mxGeometry relative="1" as="geometry">
                        <mxPoint x="625" y="1116.0000000000002" as="targetPoint"/>
                    </mxGeometry>
                </mxCell>
                <mxCell id="240" style="edgeStyle=none;html=1;exitX=0.5;exitY=1;exitDx=0;exitDy=0;entryX=0.5;entryY=0;entryDx=0;entryDy=0;" parent="1" source="244" target="255" edge="1">
                    <mxGeometry relative="1" as="geometry"/>
                </mxCell>
                <mxCell id="263" style="edgeStyle=none;html=1;exitX=0.5;exitY=1;exitDx=0;exitDy=0;entryX=0.5;entryY=0;entryDx=0;entryDy=0;" parent="1" source="241" target="256" edge="1">
                    <mxGeometry relative="1" as="geometry"/>
                </mxCell>
                <mxCell id="241" value="Value is&lt;br&gt;empty?" style="rhombus;whiteSpace=wrap;html=1;fillColor=#76608a;fontColor=#ffffff;strokeColor=#432D57;" parent="1" vertex="1">
                    <mxGeometry x="475" y="1041" width="90" height="80" as="geometry"/>
                </mxCell>
                <mxCell id="268" style="edgeStyle=none;html=1;exitX=0.5;exitY=1;exitDx=0;exitDy=0;entryX=0.75;entryY=0.5;entryDx=0;entryDy=0;entryPerimeter=0;" parent="1" source="242" target="265" edge="1">
                    <mxGeometry relative="1" as="geometry"/>
                </mxCell>
                <mxCell id="242" value="Remember value" style="shape=rect;html=1;rounded=1;whiteSpace=wrap;align=center;fillColor=#008a00;fontColor=#ffffff;strokeColor=#005700;" parent="1" vertex="1">
                    <mxGeometry x="600" y="1300" width="120" height="50" as="geometry"/>
                </mxCell>
                <mxCell id="243" style="edgeStyle=none;html=1;exitX=0.5;exitY=0;exitDx=0;exitDy=0;entryX=0.5;entryY=1;entryDx=0;entryDy=0;fontSize=16;endArrow=classic;endFill=1;" parent="1" source="244" target="246" edge="1">
                    <mxGeometry relative="1" as="geometry"/>
                </mxCell>
                <mxCell id="244" value="Value is&lt;br&gt;valid?" style="rhombus;whiteSpace=wrap;html=1;fillColor=#76608a;fontColor=#ffffff;strokeColor=#432D57;" parent="1" vertex="1">
                    <mxGeometry x="615" y="1042" width="90" height="80" as="geometry"/>
                </mxCell>
                <mxCell id="245" style="edgeStyle=none;html=1;exitX=0.5;exitY=0;exitDx=0;exitDy=0;entryX=1;entryY=0.5;entryDx=0;entryDy=0;" parent="1" source="246" target="238" edge="1">
                    <mxGeometry relative="1" as="geometry">
                        <mxPoint x="660" y="911" as="targetPoint"/>
                        <Array as="points">
                            <mxPoint x="660" y="906"/>
                        </Array>
                    </mxGeometry>
                </mxCell>
                <mxCell id="246" value="Repeat the question" style="shape=rect;html=1;rounded=1;whiteSpace=wrap;align=center;fillColor=#008a00;fontColor=#ffffff;strokeColor=#005700;" parent="1" vertex="1">
                    <mxGeometry x="600" y="947" width="120" height="50" as="geometry"/>
                </mxCell>
                <mxCell id="247" value="No" style="text;html=1;align=center;verticalAlign=middle;resizable=0;points=[];autosize=1;strokeColor=none;fillColor=none;" parent="1" vertex="1">
                    <mxGeometry x="660" y="1261" width="40" height="30" as="geometry"/>
                </mxCell>
                <mxCell id="248" value="No" style="text;html=1;align=center;verticalAlign=middle;resizable=0;points=[];autosize=1;strokeColor=none;fillColor=none;" parent="1" vertex="1">
                    <mxGeometry x="571" y="1058" width="40" height="30" as="geometry"/>
                </mxCell>
                <mxCell id="249" value="No" style="text;html=1;align=center;verticalAlign=middle;resizable=0;points=[];autosize=1;strokeColor=none;fillColor=none;" parent="1" vertex="1">
                    <mxGeometry x="654" y="1010" width="40" height="30" as="geometry"/>
                </mxCell>
                <mxCell id="251" style="edgeStyle=none;html=1;exitX=0.5;exitY=0.5;exitDx=0;exitDy=0;exitPerimeter=0;endArrow=classic;endFill=1;" parent="1" source="252" target="238" edge="1">
                    <mxGeometry relative="1" as="geometry">
                        <mxPoint x="460" y="851" as="targetPoint"/>
                    </mxGeometry>
                </mxCell>
                <mxCell id="252" value="User" style="shape=umlActor;verticalLabelPosition=bottom;verticalAlign=top;html=1;" parent="1" vertex="1">
                    <mxGeometry x="240" y="876" width="30" height="60" as="geometry"/>
                </mxCell>
                <mxCell id="261" style="edgeStyle=none;html=1;exitX=0.5;exitY=1;exitDx=0;exitDy=0;entryX=0.5;entryY=0;entryDx=0;entryDy=0;" parent="1" source="255" target="242" edge="1">
                    <mxGeometry relative="1" as="geometry"/>
                </mxCell>
                <mxCell id="262" style="edgeStyle=none;html=1;exitX=0;exitY=0.5;exitDx=0;exitDy=0;" parent="1" source="255" edge="1">
                    <mxGeometry relative="1" as="geometry">
                        <mxPoint x="520" y="1212" as="targetPoint"/>
                    </mxGeometry>
                </mxCell>
                <mxCell id="255" value="Value is the&lt;br&gt;same as&lt;br&gt;current?" style="rhombus;whiteSpace=wrap;html=1;fillColor=#76608a;fontColor=#ffffff;strokeColor=#432D57;" parent="1" vertex="1">
                    <mxGeometry x="607.5" y="1161" width="105" height="100" as="geometry"/>
                </mxCell>
                <mxCell id="267" style="edgeStyle=none;html=1;exitX=0.5;exitY=1;exitDx=0;exitDy=0;entryX=0.25;entryY=0.5;entryDx=0;entryDy=0;entryPerimeter=0;" parent="1" source="256" target="265" edge="1">
                    <mxGeometry relative="1" as="geometry"/>
                </mxCell>
                <mxCell id="256" value="Discard value" style="shape=rect;html=1;rounded=1;whiteSpace=wrap;align=center;fillColor=#008a00;fontColor=#ffffff;strokeColor=#005700;" parent="1" vertex="1">
                    <mxGeometry x="460" y="1300" width="120" height="50" as="geometry"/>
                </mxCell>
                <mxCell id="258" value="Yes" style="text;html=1;align=center;verticalAlign=middle;resizable=0;points=[];autosize=1;strokeColor=none;fillColor=none;" parent="1" vertex="1">
                    <mxGeometry x="572" y="1186" width="40" height="30" as="geometry"/>
                </mxCell>
                <mxCell id="260" value="Yes" style="text;html=1;align=center;verticalAlign=middle;resizable=0;points=[];autosize=1;strokeColor=none;fillColor=none;" parent="1" vertex="1">
                    <mxGeometry x="660" y="1122" width="40" height="30" as="geometry"/>
                </mxCell>
                <mxCell id="264" value="Yes" style="text;html=1;align=center;verticalAlign=middle;resizable=0;points=[];autosize=1;strokeColor=none;fillColor=none;" parent="1" vertex="1">
                    <mxGeometry x="513" y="1117" width="40" height="30" as="geometry"/>
                </mxCell>
                <mxCell id="265" value="" style="shape=line;html=1;strokeWidth=6;strokeColor=#000000;fillColor=none;" parent="1" vertex="1">
                    <mxGeometry x="451" y="1375" width="280" height="10" as="geometry"/>
                </mxCell>
                <mxCell id="266" value="" style="html=1;verticalAlign=bottom;endArrow=open;endSize=8;strokeColor=#000000;entryX=1;entryY=0;entryDx=0;entryDy=0;" parent="1" source="265" target="187" edge="1">
                    <mxGeometry relative="1" as="geometry">
                        <mxPoint x="560" y="1420" as="targetPoint"/>
                    </mxGeometry>
                </mxCell>
                <mxCell id="205" style="edgeStyle=none;html=1;exitX=0.5;exitY=1;exitDx=0;exitDy=0;entryX=0.5;entryY=0;entryDx=0;entryDy=0;" parent="1" source="182" target="238" edge="1">
                    <mxGeometry relative="1" as="geometry">
                        <mxPoint x="479.6551724137931" y="891.4952380952382" as="targetPoint"/>
                    </mxGeometry>
                </mxCell>
                <mxCell id="282" style="edgeStyle=none;html=1;exitX=0.5;exitY=1;exitDx=0;exitDy=0;strokeColor=#000000;entryX=0;entryY=0;entryDx=0;entryDy=0;" parent="1" source="271" target="184" edge="1">
                    <mxGeometry relative="1" as="geometry">
                        <mxPoint x="110" y="1978.3050847457625" as="targetPoint"/>
                    </mxGeometry>
                </mxCell>
                <mxCell id="286" value="Yes" style="text;html=1;align=center;verticalAlign=middle;resizable=0;points=[];autosize=1;strokeColor=none;fillColor=none;" parent="1" vertex="1">
                    <mxGeometry x="818" y="730" width="40" height="30" as="geometry"/>
                </mxCell>
                <mxCell id="287" value="No" style="text;html=1;align=center;verticalAlign=middle;resizable=0;points=[];autosize=1;strokeColor=none;fillColor=none;" parent="1" vertex="1">
                    <mxGeometry x="818" y="600" width="40" height="30" as="geometry"/>
                </mxCell>
                <mxCell id="289" style="edgeStyle=none;html=1;entryX=0;entryY=0;entryDx=0;entryDy=0;strokeColor=#000000;" parent="1" source="288" target="270" edge="1">
                    <mxGeometry relative="1" as="geometry"/>
                </mxCell>
                <mxCell id="288" value="hackathon.db" style="shape=datastore;whiteSpace=wrap;html=1;fillColor=#f0a30a;fontColor=#000000;strokeColor=#BD7000;" parent="1" vertex="1">
                    <mxGeometry x="210" y="750" width="95" height="60" as="geometry"/>
                </mxCell>
            </root>
        </mxGraphModel>
    </diagram>
</mxfile>